<svg xmlns="http://www.w3.org/2000/svg" viewBox="0 0 300 300" width="300" height="300" preserveAspectRatio="xMidYMid slice" style="width: 100%; height: 100%; transform: translate3d(0px, 0px, 0px); content-visibility: visible;"><defs><clipPath id="__lottie_element_55"><rect width="300" height="300" x="0" y="0"></rect></clipPath></defs><g clip-path="url(#__lottie_element_55)"><g transform="matrix(0.8849999904632568,0,0,0.8849999904632568,150,150)" opacity="1" style="display: block;"><path stroke-linecap="round" stroke-linejoin="miter" fill-opacity="0" stroke-miterlimit="4" stroke="rgb(255,255,255)" stroke-opacity="1" stroke-width="10" d=" M49.98899841308594,1.0369999408721924 C49.4370002746582,28.15399932861328 27.249000549316406,50 0,50 C-27.594999313354492,50 -50,27.594999313354492 -50,0 C-50,-27.594999313354492 -27.594999313354492,-50 0,-50 C0,-50 0,-50 0,-50 C3.561000108718872,-50 7.035999774932861,-49.62699890136719 10.38700008392334,-48.917999267578125"></path></g><g style="display: block;" transform="matrix(0.8849999904632568,0,0,0.8849999904632568,150,150)" opacity="1"><path stroke-linecap="round" stroke-linejoin="miter" fill-opacity="0" stroke-miterlimit="4" stroke="rgb(166,136,186)" stroke-opacity="1" stroke-width="10" d=" M49.98899841308594,1.0369999408721924 C49.4370002746582,28.15399932861328 27.249000549316406,50 0,50 C-27.594999313354492,50 -50,27.594999313354492 -50,0 C-50,-27.594999313354492 -27.594999313354492,-50 0,-50 C0,-50 0,-50 0,-50 C3.561000108718872,-50 7.035999774932861,-49.62699890136719 10.38700008392334,-48.917999267578125"></path></g><g style="display: block;" transform="matrix(0.8849999904632568,0,0,0.8849999904632568,150,150)" opacity="1"><path stroke-linecap="round" stroke-linejoin="miter" fill-opacity="0" stroke-miterlimit="4" stroke="rgb(94,114,228)" stroke-opacity="1" stroke-width="10" d=" M49.98899841308594,1.0369999408721924 C49.4370002746582,28.15399932861328 27.249000549316406,50 0,50 C-27.594999313354492,50 -50,27.594999313354492 -50,0 C-50,-27.594999313354492 -27.594999313354492,-50 0,-50 C0,-50 0,-50 0,-50 C3.561000108718872,-50 7.035999774932861,-49.62699890136719 10.38700008392334,-48.917999267578125"></path></g><g style="display: none;" transform="matrix(1.5635830163955688,0,0,1.5635830163955688,150,150)" opacity="0.0010735168488761814"><path fill="rgb(26,236,207)" fill-opacity="1" d=" M0,-50 C27.594999313354492,-50 50,-27.594999313354492 50,0 C50,27.594999313354492 27.594999313354492,50 0,50 C-27.594999313354492,50 -50,27.594999313354492 -50,0 C-50,-27.594999313354492 -27.594999313354492,-50 0,-50z"></path></g><g style="display: block;" transform="matrix(0.5,0,0,0.5,160.5,148)" opacity="1"><g opacity="1" transform="matrix(1,0,0,1,0,0)"><path stroke-linecap="round" stroke-linejoin="round" fill-opacity="0" stroke="rgb(255,255,255)" stroke-opacity="1" stroke-width="20" d=" M-56,-14 C-56,-14 -22,22 -22,22 C-22,22 67,-72 67,-72"></path></g></g><g style="display: block;" transform="matrix(0.5,0,0,0.5,160.5,148)" opacity="1"><g opacity="1" transform="matrix(1,0,0,1,0,0)"><path stroke-linecap="round" stroke-linejoin="round" fill-opacity="0" stroke="rgb(118,116,215)" stroke-opacity="1" stroke-width="20" d=" M-56,-14 C-56,-14 -22,22 -22,22 C-22,22 67,-72 67,-72"></path><path stroke-linecap="round" stroke-linejoin="round" fill-opacity="0" stroke="rgb(159,88,220)" stroke-opacity="1" stroke-width="20" d=" M-56,-14 C-56,-14 -22,22 -22,22 C-22,22 67,-72 67,-72"></path></g></g><g style="display: block;" transform="matrix(0.5,0,0,0.5,160.5,148)" opacity="1"><g opacity="1" transform="matrix(1,0,0,1,0,0)"><path stroke-linecap="round" stroke-linejoin="round" fill-opacity="0" stroke="rgb(19,164,209)" stroke-opacity="1" stroke-width="20" d=" M-56,-14 C-56,-14 -22,22 -22,22 C-22,22 67,-72 67,-72"></path><path stroke-linecap="round" stroke-linejoin="round" fill-opacity="0" stroke="rgb(137,115,203)" stroke-opacity="1" stroke-width="20" d=" M-56,-14 C-56,-14 -22,22 -22,22 C-22,22 67,-72 67,-72"></path></g></g></g></svg>