<svg xmlns="http://www.w3.org/2000/svg" viewBox="0 0 500 500" width="500" height="500" preserveAspectRatio="xMidYMid slice" style="width: 100%; height: 100%; transform: translate3d(0px, 0px, 0px); content-visibility: visible;"><defs><clipPath id="__lottie_element_2"><rect width="500" height="500" x="0" y="0"></rect></clipPath></defs><g clip-path="url(#__lottie_element_2)"><g transform="matrix(0.7071067690849304,0.7071067690849304,-0.7071067690849304,0.7071067690849304,300.2072448730469,358.8209533691406)" opacity="1" style="display: block;"><g opacity="1" transform="matrix(1,0,0,1,-125,-107)"><path fill="rgb(98,122,224)" fill-opacity="1" d=" M57,-57 C57,-57 57,57 57,57 C57,57 -57,57 -57,57 C-57,57 -57,-57 -57,-57 C-57,-57 57,-57 57,-57z"></path><path stroke-linecap="butt" stroke-linejoin="miter" fill-opacity="0" stroke-miterlimit="4" stroke="rgb(255,255,255)" stroke-opacity="1" stroke-width="0" d=" M57,-57 C57,-57 57,57 57,57 C57,57 -57,57 -57,57 C-57,57 -57,-57 -57,-57 C-57,-57 57,-57 57,-57z"></path></g></g><g transform="matrix(0.7071067690849304,0.7071067690849304,-0.7071067690849304,0.7071067690849304,207.33761596679688,376.46844482421875)" opacity="1" style="display: block;"><g opacity="1" transform="matrix(1,0,0,1,-125,-107)"><path fill="rgb(99,177,239)" fill-opacity="1" d=" M57,-57 C57,-57 57,57 57,57 C57,57 -57,57 -57,57 C-57,57 -57,-57 -57,-57 C-57,-57 57,-57 57,-57z"></path><path stroke-linecap="butt" stroke-linejoin="miter" fill-opacity="0" stroke-miterlimit="4" stroke="rgb(255,255,255)" stroke-opacity="1" stroke-width="0" d=" M57,-57 C57,-57 57,57 57,57 C57,57 -57,57 -57,57 C-57,57 -57,-57 -57,-57 C-57,-57 57,-57 57,-57z"></path></g></g><g transform="matrix(0.7071067690849304,0.7071067690849304,-0.7071067690849304,0.7071067690849304,225.34219360351562,469.145751953125)" opacity="1" style="display: block;"><g opacity="1" transform="matrix(1,0,0,1,-125,-107)"><path fill="rgb(98,122,224)" fill-opacity="1" d=" M57,-57 C57,-57 57,57 57,57 C57,57 -57,57 -57,57 C-57,57 -57,-57 -57,-57 C-57,-57 57,-57 57,-57z"></path><path stroke-linecap="butt" stroke-linejoin="miter" fill-opacity="0" stroke-miterlimit="4" stroke="rgb(255,255,255)" stroke-opacity="1" stroke-width="0" d=" M57,-57 C57,-57 57,57 57,57 C57,57 -57,57 -57,57 C-57,57 -57,-57 -57,-57 C-57,-57 57,-57 57,-57z"></path></g></g><g transform="matrix(0.7071067690849304,0.7071067690849304,-0.7071067690849304,0.7071067690849304,317.9725341796875,451.45709228515625)" opacity="1" style="display: block;"><g opacity="1" transform="matrix(1,0,0,1,-125,-107)"><path fill="rgb(99,177,239)" fill-opacity="1" d=" M57,-57 C57,-57 57,57 57,57 C57,57 -57,57 -57,57 C-57,57 -57,-57 -57,-57 C-57,-57 57,-57 57,-57z"></path><path stroke-linecap="butt" stroke-linejoin="miter" fill-opacity="0" stroke-miterlimit="4" stroke="rgb(255,255,255)" stroke-opacity="1" stroke-width="0" d=" M57,-57 C57,-57 57,57 57,57 C57,57 -57,57 -57,57 C-57,57 -57,-57 -57,-57 C-57,-57 57,-57 57,-57z"></path></g></g></g></svg>