<svg xmlns="http://www.w3.org/2000/svg" viewBox="0 0 1080 1080" width="1080" height="1080" preserveAspectRatio="xMidYMid slice" style="width: 100%; height: 100%; transform: translate3d(0px, 0px, 0px); content-visibility: visible;"><defs><clipPath id="__lottie_element_31"><rect width="1080" height="1080" x="0" y="0"></rect></clipPath><clipPath id="__lottie_element_36"><path d="M0,0 L500,0 L500,500 L0,500z"></path></clipPath></defs><g clip-path="url(#__lottie_element_31)"><g transform="matrix(0.28600001335144043,0,0,0.28600001335144043,-32.000213623046875,64)" opacity="1" style="display: block;"><g opacity="1" transform="matrix(1,0,0,1,1706.47998046875,2920.669921875)"><path fill="rgb(251,222,185)" fill-opacity="1" d=" M81.50900268554688,1079.3299560546875 C81.50900268554688,1079.3299560546875 258.7090148925781,359.8999938964844 258.7090148925781,359.8999938964844 C336.1990051269531,322.3699951171875 430.3900146484375,267.510009765625 526.8699951171875,187.4199981689453 C676.1300048828125,63.54999923706055 769.8200073242188,-69.97000122070312 825.75,-165.7899932861328 C465.8399963378906,-444.5899963378906 111.69999694824219,-714.1500244140625 -248.2100067138672,-992.9400024414062 C-278.1300048828125,-1050.0699462890625 -347.20098876953125,-1079.3299560546875 -388.6610107421875,-1057.699951171875 C-404.6709899902344,-1049.3399658203125 -415.1300048828125,-1035.969970703125 -421.9700012207031,-1022.3900146484375 C-432.3299865722656,-1001.7999877929688 -435.25,-978.25 -430.9800109863281,-955.5999755859375 C-425.3999938964844,-926.0800170898438 -419.20001220703125,-889.9299926757812 -413.4700012207031,-848.5999755859375 C-398.5,-740.8099975585938 -395.1600036621094,-658.7899780273438 -394.55999755859375,-643.0499877929688 C-391.6000061035156,-564.6500244140625 -393.0010070800781,-442.07000732421875 -418.781005859375,-285.70001220703125 C-420.260986328125,-249.9600067138672 -418.4209899902344,-197.6699981689453 -401.6510009765625,-137.44000244140625 C-385.1510009765625,-78.16999816894531 -360.27099609375,-33.029998779296875 -340.8110046386719,-3.359999895095825 C-352.6310119628906,24.600000381469727 -364.44000244140625,52.560001373291016 -376.25,80.51000213623047 C-376.25,80.51000213623047 -825.75,1079.3299560546875 -825.75,1079.3299560546875 C-825.75,1079.3299560546875 81.50900268554688,1079.3299560546875 81.50900268554688,1079.3299560546875z"></path></g><g opacity="1" transform="matrix(1,0,0,1,2070.77001953125,3420.85498046875)"><path fill="rgb(243,204,161)" fill-opacity="1" d=" M-406.2300109863281,579.14501953125 C-406.2300109863281,579.14501953125 -149.8800048828125,-173.9550018310547 -149.8800048828125,-173.9550018310547 C-88.75,-197.44500732421875 -21.18000030517578,-228.5749969482422 49.18000030517578,-270.2349853515625 C215.5,-368.7049865722656 331.0899963378906,-486.7550048828125 406.2300109863281,-579.14501953125 C352.17999267578125,-501.5050048828125 270.94000244140625,-402.2149963378906 154.30999755859375,-306.8550109863281 C60.09000015258789,-229.80499267578125 -31.09000015258789,-176.7050018310547 -105.58000183105469,-140.28500366210938 C-164.63999938964844,99.5250015258789 -223.7100067138672,339.3349914550781 -282.7799987792969,579.14501953125 C-282.7799987792969,579.14501953125 -406.2300109863281,579.14501953125 -406.2300109863281,579.14501953125z"></path></g><g opacity="1" transform="matrix(1,0,0,1,2545.050048828125,1618.0849609375)"><path fill="rgb(251,222,185)" fill-opacity="1" d=" M136.38999938964844,9.78499984741211 C136.38999938964844,9.78499984741211 26.200000762939453,134.21499633789062 26.200000762939453,134.21499633789062 C-13.5600004196167,179.11500549316406 -82.19999694824219,183.27499389648438 -127.08999633789062,143.51499938964844 C-127.08999633789062,143.51499938964844 -127.08999633789062,143.51499938964844 -127.08999633789062,143.51499938964844 C-171.99000549316406,103.74500274658203 -176.16000366210938,35.1150016784668 -136.38999938964844,-9.78499984741211 C-136.38999938964844,-9.78499984741211 -26.200000762939453,-134.2050018310547 -26.200000762939453,-134.2050018310547 C13.569999694824219,-179.10499572753906 82.19999694824219,-183.27499389648438 127.0999984741211,-143.5050048828125 C127.0999984741211,-143.5050048828125 127.0999984741211,-143.5050048828125 127.0999984741211,-143.5050048828125 C172,-103.74500274658203 176.16000366210938,-35.10499954223633 136.38999938964844,9.78499984741211z"></path></g><g opacity="1" transform="matrix(1,0,0,1,2006.06005859375,1890.68505859375)"><path fill="rgb(44,47,49)" fill-opacity="1" d=" M451.8599853515625,1025.68505859375 C451.8599853515625,1025.68505859375 -451.8599853515625,1025.68505859375 -451.8599853515625,1025.68505859375 C-504.8800048828125,1025.68505859375 -547.8599853515625,982.7050170898438 -547.8599853515625,929.6849975585938 C-547.8599853515625,929.6849975585938 -547.8599853515625,-929.6849975585938 -547.8599853515625,-929.6849975585938 C-547.8599853515625,-982.7050170898438 -504.8800048828125,-1025.68505859375 -451.8599853515625,-1025.68505859375 C-451.8599853515625,-1025.68505859375 451.8599853515625,-1025.68505859375 451.8599853515625,-1025.68505859375 C504.8800048828125,-1025.68505859375 547.8599853515625,-982.7050170898438 547.8599853515625,-929.6849975585938 C547.8599853515625,-929.6849975585938 547.8599853515625,929.6849975585938 547.8599853515625,929.6849975585938 C547.8599853515625,982.7050170898438 504.8800048828125,1025.68505859375 451.8599853515625,1025.68505859375z"></path></g><g opacity="1" transform="matrix(1,0,0,1,2006.06494140625,1890.68505859375)"><path fill="rgb(85,118,137)" fill-opacity="1" d=" M460.5150146484375,979.9359741210938 C460.5150146484375,979.9359741210938 -460.5249938964844,979.9359741210938 -460.5249938964844,979.9359741210938 C-484.42498779296875,979.9359741210938 -503.80499267578125,960.5560302734375 -503.80499267578125,936.656005859375 C-503.80499267578125,936.656005859375 -503.80499267578125,-913.3980102539062 -503.80499267578125,-913.3980102539062 C-503.80499267578125,-950.14501953125 -474.0150146484375,-979.9359741210938 -437.2749938964844,-979.9359741210938 C-437.2749938964844,-979.9359741210938 460.5150146484375,-979.9359741210938 460.5150146484375,-979.9359741210938 C484.42498779296875,-979.9359741210938 503.80499267578125,-960.5540161132812 503.80499267578125,-936.6480102539062 C503.80499267578125,-936.6480102539062 503.80499267578125,936.656005859375 503.80499267578125,936.656005859375 C503.80499267578125,960.5560302734375 484.42498779296875,979.9359741210938 460.5150146484375,979.9359741210938z"></path></g><g opacity="1" transform="matrix(1,0,0,1,2006.06005859375,957.0640258789062)"><path fill="rgb(56,69,76)" fill-opacity="1" d=" M217.5500030517578,52.5260009765625 C217.5500030517578,52.5260009765625 -217.5399932861328,52.5260009765625 -217.5399932861328,52.5260009765625 C-233.7100067138672,52.5260009765625 -246.82000732421875,39.417999267578125 -246.82000732421875,23.249000549316406 C-246.82000732421875,23.249000549316406 -246.82000732421875,-52.5260009765625 -246.82000732421875,-52.5260009765625 C-246.82000732421875,-52.5260009765625 246.82000732421875,-52.5260009765625 246.82000732421875,-52.5260009765625 C246.82000732421875,-52.5260009765625 246.82000732421875,23.249000549316406 246.82000732421875,23.249000549316406 C246.82000732421875,39.417999267578125 233.72000122070312,52.5260009765625 217.5500030517578,52.5260009765625z"></path></g><g opacity="1" transform="matrix(1,0,0,1,2007.6500244140625,943.5079956054688)"><path fill="rgb(85,118,137)" fill-opacity="1" d=" M88.3499984741211,17.509000778198242 C88.3499984741211,17.509000778198242 -88.3499984741211,17.509000778198242 -88.3499984741211,17.509000778198242 C-96.36000061035156,17.509000778198242 -102.8499984741211,11.017000198364258 -102.8499984741211,3.009000062942505 C-102.8499984741211,3.009000062942505 -102.8499984741211,-3.009000062942505 -102.8499984741211,-3.009000062942505 C-102.8499984741211,-11.017000198364258 -96.36000061035156,-17.509000778198242 -88.3499984741211,-17.509000778198242 C-88.3499984741211,-17.509000778198242 88.3499984741211,-17.509000778198242 88.3499984741211,-17.509000778198242 C96.3499984741211,-17.509000778198242 102.8499984741211,-11.017000198364258 102.8499984741211,-3.009000062942505 C102.8499984741211,-3.009000062942505 102.8499984741211,3.009000062942505 102.8499984741211,3.009000062942505 C102.8499984741211,11.017000198364258 96.3499984741211,17.509000778198242 88.3499984741211,17.509000778198242z"></path></g><g opacity="1" transform="matrix(1,0,0,1,1905.2049560546875,1890.68505859375)"><path fill="rgb(43,47,49)" fill-opacity="1" d=" M-286.5350036621094,1025.68505859375 C-286.5350036621094,1025.68505859375 -350.92498779296875,1025.68505859375 -350.92498779296875,1025.68505859375 C-403.9549865722656,1025.68505859375 -446.93499755859375,982.6950073242188 -446.93499755859375,929.6749877929688 C-446.93499755859375,929.6749877929688 -446.93499755859375,-929.6680297851562 -446.93499755859375,-929.6680297851562 C-446.93499755859375,-982.6959838867188 -403.9549865722656,-1025.68505859375 -350.92498779296875,-1025.68505859375 C-350.92498779296875,-1025.68505859375 446.93499755859375,-1025.68505859375 446.93499755859375,-1025.68505859375 C446.93499755859375,-1025.68505859375 430.57501220703125,-979.9359741210938 430.57501220703125,-979.9359741210938 C430.57501220703125,-979.9359741210938 347.67498779296875,-979.9359741210938 347.67498779296875,-979.9359741210938 C347.67498779296875,-979.9359741210938 347.67498779296875,-986.1480102539062 347.67498779296875,-986.1480102539062 C347.67498779296875,-986.1480102539062 -145.96499633789062,-986.1480102539062 -145.96499633789062,-986.1480102539062 C-145.96499633789062,-986.1480102539062 -145.96499633789062,-979.9359741210938 -145.96499633789062,-979.9359741210938 C-145.96499633789062,-979.9359741210938 -336.4150085449219,-979.9359741210938 -336.4150085449219,-979.9359741210938 C-373.1549987792969,-979.9359741210938 -402.94500732421875,-950.14599609375 -402.94500732421875,-913.3989868164062 C-402.94500732421875,-913.3989868164062 -402.94500732421875,936.655029296875 -402.94500732421875,936.655029296875 C-402.94500732421875,960.5549926757812 -383.56500244140625,979.9349975585938 -359.6650085449219,979.9349975585938 C-359.6650085449219,979.9349975585938 -270.17498779296875,979.9349975585938 -270.17498779296875,979.9349975585938 C-270.17498779296875,979.9349975585938 -286.5350036621094,1025.68505859375 -286.5350036621094,1025.68505859375z"></path></g><g opacity="1" transform="matrix(1,0,0,1,1919.02001953125,1890.68505859375)"><path fill="rgb(101,130,147)" fill-opacity="1" d=" M-283.989990234375,979.9359741210938 C-283.989990234375,979.9359741210938 -373.4800109863281,979.9359741210938 -373.4800109863281,979.9359741210938 C-397.3800048828125,979.9359741210938 -416.760009765625,960.5560302734375 -416.760009765625,936.656005859375 C-416.760009765625,936.656005859375 -416.760009765625,-913.3980102539062 -416.760009765625,-913.3980102539062 C-416.760009765625,-950.14501953125 -386.9700012207031,-979.9359741210938 -350.2300109863281,-979.9359741210938 C-350.2300109863281,-979.9359741210938 -159.77999877929688,-979.9359741210938 -159.77999877929688,-979.9359741210938 C-159.77999877929688,-979.9359741210938 -159.77999877929688,-910.3720092773438 -159.77999877929688,-910.3720092773438 C-159.77999877929688,-894.2030029296875 -146.6699981689453,-881.093994140625 -130.5,-881.093994140625 C-130.5,-881.093994140625 304.5899963378906,-881.093994140625 304.5899963378906,-881.093994140625 C320.760009765625,-881.093994140625 333.8599853515625,-894.2030029296875 333.8599853515625,-910.3720092773438 C333.8599853515625,-910.3720092773438 333.8599853515625,-979.9359741210938 333.8599853515625,-979.9359741210938 C333.8599853515625,-979.9359741210938 416.760009765625,-979.9359741210938 416.760009765625,-979.9359741210938 C416.760009765625,-979.9359741210938 -283.989990234375,979.9359741210938 -283.989990234375,979.9359741210938z"></path></g><g opacity="1" transform="matrix(1,0,0,1,2006.06005859375,957.0640258789062)"><path fill="rgb(44,47,49)" fill-opacity="1" d=" M-86.76000213623047,-31.065000534057617 C-94.7699966430664,-31.065000534057617 -101.26000213623047,-24.572999954223633 -101.26000213623047,-16.565000534057617 C-101.26000213623047,-16.565000534057617 -101.26000213623047,-10.54699993133545 -101.26000213623047,-10.54699993133545 C-101.26000213623047,-2.5390000343322754 -94.7699966430664,3.953000068664551 -86.76000213623047,3.953000068664551 C-86.76000213623047,3.953000068664551 89.94000244140625,3.953000068664551 89.94000244140625,3.953000068664551 C97.94000244140625,3.953000068664551 104.44000244140625,-2.5390000343322754 104.44000244140625,-10.54699993133545 C104.44000244140625,-10.54699993133545 104.44000244140625,-16.565000534057617 104.44000244140625,-16.565000534057617 C104.44000244140625,-24.572999954223633 97.94000244140625,-31.065000534057617 89.94000244140625,-31.065000534057617 C89.94000244140625,-31.065000534057617 -86.76000213623047,-31.065000534057617 -86.76000213623047,-31.065000534057617z M217.5500030517578,52.5260009765625 C217.5500030517578,52.5260009765625 -217.5399932861328,52.5260009765625 -217.5399932861328,52.5260009765625 C-233.7100067138672,52.5260009765625 -246.82000732421875,39.417999267578125 -246.82000732421875,23.249000549316406 C-246.82000732421875,23.249000549316406 -246.82000732421875,-46.314998626708984 -246.82000732421875,-46.314998626708984 C-246.82000732421875,-46.314998626708984 -246.82000732421875,-52.5260009765625 -246.82000732421875,-52.5260009765625 C-246.82000732421875,-52.5260009765625 246.82000732421875,-52.5260009765625 246.82000732421875,-52.5260009765625 C246.82000732421875,-52.5260009765625 246.82000732421875,-46.314998626708984 246.82000732421875,-46.314998626708984 C246.82000732421875,-46.314998626708984 246.82000732421875,23.249000549316406 246.82000732421875,23.249000549316406 C246.82000732421875,39.417999267578125 233.72000122070312,52.5260009765625 217.5500030517578,52.5260009765625z"></path></g><g opacity="1" transform="matrix(1,0,0,1,2007.6500244140625,943.5079956054688)"><path fill="rgb(101,130,147)" fill-opacity="1" d=" M88.3499984741211,17.509000778198242 C88.3499984741211,17.509000778198242 -88.3499984741211,17.509000778198242 -88.3499984741211,17.509000778198242 C-96.36000061035156,17.509000778198242 -102.8499984741211,11.017000198364258 -102.8499984741211,3.009000062942505 C-102.8499984741211,3.009000062942505 -102.8499984741211,-3.009000062942505 -102.8499984741211,-3.009000062942505 C-102.8499984741211,-11.017000198364258 -96.36000061035156,-17.509000778198242 -88.3499984741211,-17.509000778198242 C-88.3499984741211,-17.509000778198242 88.3499984741211,-17.509000778198242 88.3499984741211,-17.509000778198242 C96.3499984741211,-17.509000778198242 102.8499984741211,-11.017000198364258 102.8499984741211,-3.009000062942505 C102.8499984741211,-3.009000062942505 102.8499984741211,3.009000062942505 102.8499984741211,3.009000062942505 C102.8499984741211,11.017000198364258 96.3499984741211,17.509000778198242 88.3499984741211,17.509000778198242z"></path></g><g opacity="1" transform="matrix(1,0,0,1,2545.050048828125,1945.7149658203125)"><path fill="rgb(251,222,185)" fill-opacity="1" d=" M136.38999938964844,9.78499984741211 C136.38999938964844,9.78499984741211 26.200000762939453,134.2050018310547 26.200000762939453,134.2050018310547 C-13.5600004196167,179.10499572753906 -82.19999694824219,183.27499389648438 -127.08999633789062,143.5050048828125 C-171.99000549316406,103.74500274658203 -176.16000366210938,35.10499954223633 -136.38999938964844,-9.78499984741211 C-136.38999938964844,-9.78499984741211 -26.200000762939453,-134.21499633789062 -26.200000762939453,-134.21499633789062 C13.569999694824219,-179.11500549316406 82.19999694824219,-183.27499389648438 127.0999984741211,-143.51499938964844 C127.0999984741211,-143.51499938964844 127.0999984741211,-143.5050048828125 127.0999984741211,-143.5050048828125 C172,-103.74500274658203 176.16000366210938,-35.1150016784668 136.38999938964844,9.78499984741211z"></path></g><g opacity="1" transform="matrix(1,0,0,1,2545.050048828125,2261.47998046875)"><path fill="rgb(251,222,185)" fill-opacity="1" d=" M136.38999938964844,9.789999961853027 C136.38999938964844,9.789999961853027 26.200000762939453,134.2100067138672 26.200000762939453,134.2100067138672 C-13.5600004196167,179.11000061035156 -82.19999694824219,183.27000427246094 -127.08999633789062,143.50999450683594 C-127.08999633789062,143.50999450683594 -127.08999633789062,143.50999450683594 -127.08999633789062,143.50999450683594 C-171.99000549316406,103.75 -176.16000366210938,35.11000061035156 -136.38999938964844,-9.779999732971191 C-136.38999938964844,-9.779999732971191 -26.200000762939453,-134.2100067138672 -26.200000762939453,-134.2100067138672 C13.569999694824219,-179.11000061035156 82.19999694824219,-183.27000427246094 127.0999984741211,-143.50999450683594 C127.0999984741211,-143.50999450683594 127.0999984741211,-143.50999450683594 127.0999984741211,-143.50999450683594 C172,-103.73999786376953 176.16000366210938,-35.11000061035156 136.38999938964844,9.789999961853027z"></path></g><g opacity="1" transform="matrix(1,0,0,1,2534.6201171875,2567.044921875)"><path fill="rgb(251,222,185)" fill-opacity="1" d=" M116.94000244140625,31.2549991607666 C116.94000244140625,31.2549991607666 45.15999984741211,112.30500030517578 45.15999984741211,112.30500030517578 C12.6899995803833,148.96499633789062 -43.349998474121094,152.36500549316406 -80.01000213623047,119.90499877929688 C-80.01000213623047,119.90499877929688 -109.3499984741211,93.91500091552734 -109.3499984741211,93.91500091552734 C-146.00999450683594,61.44499969482422 -149.41000366210938,5.40500020980835 -116.94999694824219,-31.2549991607666 C-116.94999694824219,-31.2549991607666 -45.15999984741211,-112.30500030517578 -45.15999984741211,-112.30500030517578 C-12.699999809265137,-148.96499633789062 43.34000015258789,-152.36500549316406 80,-119.8949966430664 C80,-119.8949966430664 109.3499984741211,-93.90499877929688 109.3499984741211,-93.90499877929688 C146.00999450683594,-61.44499969482422 149.41000366210938,-5.40500020980835 116.94000244140625,31.2549991607666z"></path></g><g opacity="1" transform="matrix(1,0,0,1,2502.1298828125,765.2739868164062)"><path fill="rgb(252,211,210)" fill-opacity="1" d=" M0,48.24700164794922 C-6.630000114440918,48.24700164794922 -12,42.874000549316406 -12,36.24700164794922 C-12,36.24700164794922 -12,-36.24700164794922 -12,-36.24700164794922 C-12,-42.875 -6.630000114440918,-48.24700164794922 0,-48.24700164794922 C6.630000114440918,-48.24700164794922 12,-42.875 12,-36.24700164794922 C12,-36.24700164794922 12,36.24700164794922 12,36.24700164794922 C12,42.874000549316406 6.630000114440918,48.24700164794922 0,48.24700164794922z"></path></g><g opacity="1" transform="matrix(1,0,0,1,2606.0400390625,811.5330200195312)"><path fill="rgb(252,211,210)" fill-opacity="1" d=" M-25.6299991607666,37.630001068115234 C-28.700000762939453,37.630001068115234 -31.770000457763672,36.45899963378906 -34.119998931884766,34.1150016784668 C-38.79999923706055,29.429000854492188 -38.79999923706055,21.83099937438965 -34.119998931884766,17.145000457763672 C-34.119998931884766,17.145000457763672 17.139999389648438,-34.117000579833984 17.139999389648438,-34.117000579833984 C19.489999771118164,-36.459999084472656 22.559999465942383,-37.630001068115234 25.6299991607666,-37.630001068115234 C28.700000762939453,-37.630001068115234 31.770000457763672,-36.459999084472656 34.11000061035156,-34.117000579833984 C38.79999923706055,-29.43000030517578 38.79999923706055,-21.83099937438965 34.11000061035156,-17.145000457763672 C34.11000061035156,-17.145000457763672 -17.149999618530273,34.1150016784668 -17.149999618530273,34.1150016784668 C-19.489999771118164,36.45899963378906 -22.559999465942383,37.630001068115234 -25.6299991607666,37.630001068115234z"></path></g><g opacity="1" transform="matrix(1,0,0,1,2650.054931640625,914.0609741210938)"><path fill="rgb(252,211,210)" fill-opacity="1" d=" M36.244998931884766,12 C36.244998931884766,12 -36.244998931884766,12 -36.244998931884766,12 C-42.875,12 -48.244998931884766,6.626999855041504 -48.244998931884766,0 C-48.244998931884766,-6.627999782562256 -42.875,-12 -36.244998931884766,-12 C-36.244998931884766,-12 36.244998931884766,-12 36.244998931884766,-12 C42.875,-12 48.244998931884766,-6.627999782562256 48.244998931884766,0 C48.244998931884766,6.626999855041504 42.875,12 36.244998931884766,12z"></path></g></g><g transform="matrix(0.9999990463256836,0,0,0.9999990463256836,533.9999389648438,749.9999389648438)" opacity="1" style="display: block;"><g opacity="1" transform="matrix(1.2708300352096558,0,0,1.3333300352096558,6,-242)"><path fill="rgb(44,47,49)" fill-opacity="1" d=" M97,-36 C97,-36 97,36 97,36 C97,36 -97,36 -97,36 C-97,36 -97,-36 -97,-36 C-97,-36 97,-36 97,-36z"></path></g></g><g transform="matrix(0.9999990463256836,0,0,0.9999990463256836,529.9789428710938,653.5000610351562)" opacity="1" style="display: block;"><g opacity="1" transform="matrix(1,0,0,1,0,0)"><path fill="rgb(44,47,49)" fill-opacity="1" d=" M-113.25,-105 C-113.25,-105 -113.25,-59.25 -113.25,-59.25 C-113.25,-59.25 -70.125,-103 -70.125,-103"></path></g></g><g clip-path="url(#__lottie_element_36)" transform="matrix(0.43200013041496277,0,0,0.43200013041496277,439.9997863769531,400.0000915527344)" opacity="1" style="display: block;"><g transform="matrix(1,0,0,1,250,232)" opacity="1" style="display: block;"><g opacity="1" transform="matrix(1.4702399969100952,0,0,1.4702399969100952,-144,18)"><path fill="rgb(245,245,245)" fill-opacity="1" d=" M0,-28 C15.453200340270996,-28 28,-15.453200340270996 28,0 C28,15.453200340270996 15.453200340270996,28 0,28 C-15.453200340270996,28 -28,15.453200340270996 -28,0 C-28,-15.453200340270996 -15.453200340270996,-28 0,-28z"></path></g></g><g transform="matrix(1,0,0,1,392,112.27871704101562)" opacity="1" style="display: block;"><g opacity="1" transform="matrix(1.4702399969100952,0,0,1.4702399969100952,-144,18)"><path fill="rgb(245,245,245)" fill-opacity="1" d=" M0,-28 C15.453200340270996,-28 28,-15.453200340270996 28,0 C28,15.453200340270996 15.453200340270996,28 0,28 C-15.453200340270996,28 -28,15.453200340270996 -28,0 C-28,-15.453200340270996 -15.453200340270996,-28 0,-28z"></path></g></g><g transform="matrix(1,0,0,1,534,231.76068115234375)" opacity="1" style="display: block;"><g opacity="1" transform="matrix(1.4702399969100952,0,0,1.4702399969100952,-144,18)"><path fill="rgb(245,245,245)" fill-opacity="1" d=" M0,-28 C15.453200340270996,-28 28,-15.453200340270996 28,0 C28,15.453200340270996 15.453200340270996,28 0,28 C-15.453200340270996,28 -28,15.453200340270996 -28,0 C-28,-15.453200340270996 -15.453200340270996,-28 0,-28z"></path></g></g></g></g></svg>